# xmcd
#
# Track frame offsets:
#	150
#	12151
#	23194
#	34666
#	44396
#	55968
#	67287
#	79707
#	90460
#	101320
#	112766
#	124786
#	135094
#	147097
#	156535
#	168779
#	179195
#	191991
#	202277
#	212892
#	224436
#	236198
#	247497
#	259065
#	271211
#	282232
#	294869
#
# Disc length: 4083 seconds
#
# Revision: 0
# Processed by: cddbd v1.5.2PL0 Copyright (c) Steve Scherf et al.
# Submitted via: audiograbber 1.83.01
#
DISCID=9e0ff11b
DTITLE=Jean Shepard - The Melody Ranch Girl CD1
DYEAR=1900
DGENRE=Country
TTITLE0=Twice the lovin' (in half the time) 1952
TTITLE1=Crying steel guitar waltz 1952
TTITLE2=Keep it a secret 1996
TTITLE3=Nobody else can love you like i do 1996
TTITLE4=I'd rather die young (then grow old without you) 1953
TTITLE5=A dear john letter (& ferling husky) 1953
TTITLE6=My wedding ring 1953
TTITLE7=With all these memories 1996
TTITLE8=Forgive me, John (& ferlin husky) 1953
TTITLE9=Why did you wait 1996
TTITLE10=Why did you wait 1954
TTITLE11=You'll come crawlin' 1954
TTITLE12=The mysteries of life 1956
TTITLE13=Ket's kiss and try again (& Ferlin Husky) 1954
TTITLE14=The glass that stands beside you 1954
TTITLE15=Two whoops and a holler 1954
TTITLE16=Don't fall in love with a married man 1954
TTITLE17=What'll you have (& Ferlin Husky) 1996
TTITLE18=It tickles (& Simon Crum) 1996
TTITLE19=Please don't divorce me 1954
TTITLE20=Did you tell her about me 1955
TTITLE21=Don't rush me 1954
TTITLE22=You sent her an orchid (you sent me a rose) 1955
TTITLE23=Take possession 1955
TTITLE24=A satisfied mind 1955
TTITLE25=Beautiful lies 1955
TTITLE26=I thought of you 1955
EXTD=
EXTT0=
EXTT1=
EXTT2=
EXTT3=
EXTT4=
EXTT5=
EXTT6=
EXTT7=
EXTT8=
EXTT9=
EXTT10=
EXTT11=
EXTT12=
EXTT13=
EXTT14=
EXTT15=
EXTT16=
EXTT17=
EXTT18=
EXTT19=
EXTT20=
EXTT21=
EXTT22=
EXTT23=
EXTT24=
EXTT25=
EXTT26=
PLAYORDER=
